<svg version="1.1" id="Layer_1" xmlns="http://www.w3.org/2000/svg" xmlns:xlink="http://www.w3.org/1999/xlink" x="0px" y="0px"
	 width="100%" viewBox="0 0 500 500" enable-background="new 0 0 500 500" xml:space="preserve">
<path fill="#253B59" opacity="1.000000" stroke="none" 
	d="
M463.000000,501.000000 
	C308.666718,501.000000 154.833405,501.000000 1.000082,501.000000 
	C1.000055,334.333405 1.000055,167.666824 1.000028,1.000172 
	C167.666550,1.000115 334.333099,1.000115 500.999756,1.000057 
	C500.999817,167.666519 500.999817,334.333038 500.999908,500.999756 
	C488.500000,501.000000 476.000000,501.000000 463.000000,501.000000 
M76.501526,282.290710 
	C82.975914,283.582916 87.670509,281.999390 89.908272,276.748993 
	C91.361572,273.339172 93.517487,272.860168 96.457527,273.248901 
	C99.723427,273.680695 103.367203,271.674835 105.635239,276.689606 
	C109.250397,284.682953 120.457573,285.358643 124.610924,277.709595 
	C127.007286,273.296356 129.788712,272.967834 133.707214,273.191589 
	C134.986420,273.264618 136.285477,272.990234 137.504410,272.881104 
	C138.845139,264.436859 138.666229,264.168304 132.679184,260.160858 
	C131.802185,259.573853 131.329544,258.039642 131.113022,256.862213 
	C129.013412,245.444901 122.764069,237.230484 112.510139,231.821167 
	C110.915649,230.980042 109.476944,229.071030 108.838348,227.335022 
	C106.909607,222.091690 103.033745,218.946091 97.719246,218.960922 
	C92.476318,218.975571 88.534752,222.135117 86.808617,227.476257 
	C86.384995,228.787064 85.725006,230.567459 84.677063,231.047241 
	C72.212463,236.754105 65.617050,246.619217 63.863125,259.993439 
	C62.902168,260.243500 62.091312,260.401611 61.316124,260.664764 
	C55.948689,262.486725 57.382984,267.094727 57.733177,270.781799 
	C57.825672,271.755585 61.202507,273.095367 63.061108,273.079529 
	C66.708344,273.048492 69.190819,273.625549 70.700569,277.520874 
	C71.427719,279.397003 74.016029,280.551788 76.501526,282.290710 
M251.737747,266.660492 
	C257.223633,273.620911 266.416748,274.378387 273.560516,271.152313 
	C276.799042,271.509705 280.037567,271.867126 283.481262,272.247162 
	C283.481262,253.474228 283.481262,235.588745 283.481262,217.450409 
	C280.548615,217.450409 277.947083,217.450409 274.628601,217.450409 
	C274.628601,223.962296 274.628601,230.347061 274.628601,236.804947 
	C262.723358,235.128143 255.361465,237.303406 251.227951,243.931763 
	C246.681488,251.222351 246.818390,258.710327 251.737747,266.660492 
M199.360336,266.820892 
	C200.200150,265.587402 201.181244,264.426270 201.856262,263.108398 
	C205.514465,255.966385 204.154251,246.820084 198.700760,241.358109 
	C192.966782,235.615219 182.592224,234.220779 175.031525,238.176651 
	C167.966446,241.873260 164.525345,249.348709 165.894821,258.025208 
	C167.115601,265.759613 173.044418,271.503510 181.406464,272.693939 
	C187.990433,273.631226 193.950851,272.089478 199.360336,266.820892 
M230.644226,272.397003 
	C240.908310,269.496613 245.897263,262.443695 244.973358,252.139771 
	C244.208817,243.613235 237.459885,236.998352 228.588593,236.080460 
	C218.417221,235.028046 210.154037,240.062515 207.535034,248.907639 
	C203.366318,262.986572 213.877335,274.164703 230.644226,272.397003 
M451.355804,265.142426 
	C444.129669,264.931976 441.740326,263.272278 440.547180,257.631561 
	C440.854736,257.506836 441.161377,257.275696 441.469971,257.273041 
	C448.127411,257.215149 454.791138,256.998627 461.440216,257.218597 
	C465.092255,257.339355 465.986694,255.805511 465.925262,252.518585 
	C465.790375,245.302002 461.635681,239.296997 454.814728,236.922455 
	C446.457092,234.012955 436.933746,237.546844 432.835663,245.078369 
	C428.574768,252.909119 430.374268,263.533447 436.852020,268.791870 
	C443.948914,274.552826 455.786255,274.307800 462.748260,268.122620 
	C462.020294,266.384369 461.266968,264.585541 460.532440,262.831573 
	C457.555939,263.640137 454.873566,264.368805 451.355804,265.142426 
M352.243256,266.278595 
	C351.638977,265.037384 351.034698,263.796204 350.447662,262.590424 
	C339.505005,267.286163 332.454590,265.446228 330.786285,257.157410 
	C339.097961,257.157410 347.301758,257.157410 355.357758,257.157410 
	C357.240326,246.121643 352.160004,238.065720 342.716980,236.225662 
	C332.921265,234.316895 323.558746,240.184128 321.290527,249.653000 
	C319.425659,257.438232 322.240967,265.537903 328.236877,269.637543 
	C334.412781,273.860260 345.103485,274.099274 350.977386,269.967957 
	C351.808228,269.383575 352.045654,267.955383 352.243256,266.278595 
M391.506714,241.106979 
	C386.164703,235.897903 380.097321,234.808258 373.255341,237.774139 
	C372.275757,238.198761 371.112946,238.828506 370.187653,238.634583 
	C367.246948,238.018280 364.378479,237.057388 361.016113,236.096512 
	C361.016113,248.774567 361.016113,260.209625 361.016113,271.672607 
	C363.990997,271.672607 366.729034,271.672607 369.850189,271.672607 
	C369.850189,264.705719 370.058319,258.063995 369.770752,251.443756 
	C369.602966,247.581482 371.622314,245.984787 374.759247,245.140503 
	C380.814972,243.510666 384.956268,246.582382 385.091980,252.906128 
	C385.226471,259.174744 385.121429,265.448486 385.121429,271.837402 
	C388.447601,271.837402 391.076996,271.837402 394.215057,271.837402 
	C394.215057,265.881012 394.500122,260.072632 394.120178,254.308121 
	C393.841888,250.085663 392.690308,245.920746 391.506714,241.106979 
M164.028687,244.024231 
	C164.028687,241.761749 164.028687,239.499268 164.028687,236.770630 
	C160.720871,236.770630 157.966156,236.770630 155.292709,236.770630 
	C153.733521,226.344238 155.881866,224.028229 165.273804,225.893524 
	C166.148407,223.903397 167.052414,221.846390 168.011810,219.663330 
	C162.845291,216.170837 157.727646,215.475693 152.493835,217.699783 
	C147.406372,219.861694 145.836746,224.435486 145.789566,229.561081 
	C145.676163,241.880264 145.672974,254.200531 145.653091,266.520416 
	C145.650269,268.271332 145.802292,270.022522 145.881836,271.756195 
	C149.007111,271.756195 151.610870,271.756195 154.775360,271.756195 
	C154.775360,262.930634 154.775360,254.344818 154.775360,245.657043 
	C158.106110,245.352112 160.888809,245.097366 164.028687,244.024231 
M427.508301,262.331421 
	C427.884888,256.905640 424.601837,254.090454 420.129089,252.311386 
	C417.355957,251.208328 414.329071,250.699539 411.643951,249.438797 
	C410.458191,248.882034 409.837769,247.121201 408.960724,245.906967 
	C410.152191,245.180389 411.417542,243.744583 412.521423,243.859528 
	C415.902771,244.211609 419.222137,245.159042 422.919067,245.950607 
	C423.730103,244.382309 424.696960,242.512680 425.786163,240.406433 
	C420.007263,235.938034 413.871124,234.933731 407.253326,236.819580 
	C402.636536,238.135223 399.947357,241.217621 399.640045,246.180893 
	C399.339630,251.032593 401.867767,254.093399 406.002991,255.900696 
	C408.884552,257.160095 412.078186,257.727173 414.907288,259.075684 
	C416.272034,259.726196 417.117767,261.465546 418.198486,262.711853 
	C416.739014,263.526215 415.141632,265.200592 413.846100,264.992859 
	C410.039856,264.382507 406.353455,263.024628 402.315247,261.872498 
	C401.268127,263.312866 400.029236,265.017059 398.521484,267.091095 
	C404.375702,271.935333 410.561920,273.927734 417.717987,272.417938 
	C422.840271,271.337250 426.616760,268.733246 427.508301,262.331421 
M313.009888,238.294266 
	C308.163452,237.685638 303.258972,236.317535 298.486938,236.682236 
	C293.725586,237.046127 290.471436,240.386230 289.929321,245.631836 
	C289.380280,250.944839 292.124695,254.152145 296.653473,256.069214 
	C299.395355,257.229889 302.415466,257.763153 305.090637,259.039307 
	C306.500153,259.711670 307.437531,261.373627 308.588104,262.588776 
	C306.965271,263.444855 305.208557,265.198425 303.745972,264.980225 
	C300.101349,264.436462 296.590576,262.995575 292.616364,261.790619 
	C291.549988,263.266388 290.238525,265.081360 288.808197,267.060852 
	C295.257263,272.410370 302.005859,274.206482 309.628723,271.997070 
	C314.720978,270.521149 317.728699,266.732788 317.838806,261.912231 
	C317.956177,256.772034 314.754181,254.064453 310.465790,252.371216 
	C307.539307,251.215729 304.404419,250.562042 301.542755,249.281631 
	C300.464783,248.799286 299.894073,247.183258 299.092102,246.084015 
	C300.242706,245.310364 301.455963,243.806229 302.532318,243.898514 
	C305.910156,244.188202 309.236420,245.078903 312.795258,245.778625 
	C316.225403,241.323395 316.225403,241.323395 313.009888,238.294266 
M53.493629,234.987762 
	C47.357964,234.987762 41.222298,234.987762 35.086632,234.987762 
	C38.167641,238.615509 64.945236,238.779724 69.839378,235.850769 
	C64.081734,234.363602 59.217518,235.268219 53.493629,234.987762 
M46.067841,244.305954 
	C44.525642,244.664764 42.983444,245.023575 40.757980,245.541367 
	C45.437332,249.077713 61.405300,248.693649 64.956322,244.304626 
	C58.261669,244.304626 52.604301,244.304626 46.067841,244.305954 
M57.899834,253.989822 
	C55.147247,254.227127 52.394661,254.464432 49.642071,254.701736 
	C49.690502,255.490829 49.738934,256.279938 49.787365,257.069031 
	C52.900654,257.069031 56.141453,257.608215 59.089832,256.910919 
	C61.806133,256.268494 60.755749,254.778732 57.899834,253.989822 
z"/>
<path fill="#E0B608" opacity="1.000000" stroke="none" 
	d="
M76.131538,282.161957 
	C74.016029,280.551788 71.427719,279.397003 70.700569,277.520874 
	C69.190819,273.625549 66.708344,273.048492 63.061108,273.079529 
	C61.202507,273.095367 57.825672,271.755585 57.733177,270.781799 
	C57.382984,267.094727 55.948689,262.486725 61.316124,260.664764 
	C62.091312,260.401611 62.902168,260.243500 63.863125,259.993439 
	C65.617050,246.619217 72.212463,236.754105 84.677063,231.047241 
	C85.725006,230.567459 86.384995,228.787064 86.808617,227.476257 
	C88.534752,222.135117 92.476318,218.975571 97.719246,218.960922 
	C103.033745,218.946091 106.909607,222.091690 108.838348,227.335022 
	C109.476944,229.071030 110.915649,230.980042 112.510139,231.821167 
	C122.764069,237.230484 129.013412,245.444901 131.113022,256.862213 
	C131.329544,258.039642 131.802185,259.573853 132.679184,260.160858 
	C138.666229,264.168304 138.845139,264.436859 137.504410,272.881104 
	C136.285477,272.990234 134.986420,273.264618 133.707214,273.191589 
	C129.788712,272.967834 127.007286,273.296356 124.610924,277.709595 
	C120.457573,285.358643 109.250397,284.682953 105.635239,276.689606 
	C103.367203,271.674835 99.723427,273.680695 96.457527,273.248901 
	C93.517487,272.860168 91.361572,273.339172 89.908272,276.748993 
	C87.670509,281.999390 82.975914,283.582916 76.131538,282.161957 
M109.592010,277.148895 
	C109.731125,277.315887 109.897285,277.449158 110.632690,278.057709 
	C114.105614,280.400940 117.475220,280.318939 121.210793,277.217438 
	C121.864052,276.083099 122.517311,274.948761 123.170570,273.814423 
	C122.839104,273.611603 122.507637,273.408783 122.176170,273.205933 
	C121.337288,274.364166 120.498405,275.522400 118.966995,276.915527 
	C116.422432,276.833801 113.877869,276.752075 111.108734,276.237183 
	C110.908165,275.967010 110.648796,275.777191 110.140579,275.059937 
	C109.579559,274.527130 109.018539,273.994324 108.457512,273.461517 
	C108.252518,273.647614 108.047523,273.833740 107.842529,274.019836 
	C108.367523,274.973236 108.892517,275.926636 109.592010,277.148895 
M73.913422,276.730774 
	C74.097305,277.016083 74.348724,277.216827 75.092522,277.902893 
	C81.440346,281.252777 85.961006,279.610840 87.325539,272.633850 
	C83.925224,277.128479 80.512802,279.937225 75.371246,275.945068 
	C75.219284,275.768524 75.050446,275.609955 74.659264,274.904724 
	C74.105881,274.394348 73.552498,273.884003 72.999115,273.373627 
	C72.807930,273.544373 72.616753,273.715118 72.425568,273.885834 
	C72.855904,274.684814 73.286240,275.483765 73.913422,276.730774 
M87.499977,260.426086 
	C100.910927,260.426086 114.321877,260.426086 127.712418,260.426086 
	C127.979103,244.039413 112.791092,231.004974 95.335045,231.921753 
	C80.412918,232.705460 66.627304,246.903183 68.194107,260.426178 
	C74.253967,260.426178 80.376976,260.426178 87.499977,260.426086 
M128.461548,269.959808 
	C130.433899,269.959808 132.406265,269.959808 134.214432,269.959808 
	C135.865097,264.936096 133.915909,263.781921 129.497025,263.816589 
	C108.380363,263.982269 87.261673,263.885223 66.143730,263.902039 
	C64.533737,263.903320 62.923870,264.064209 61.290249,264.152222 
	C61.290249,266.299927 61.290249,267.997070 61.290249,269.959839 
	C83.606171,269.959839 105.538605,269.959839 128.461548,269.959808 
M100.090622,228.671448 
	C101.776299,228.752777 103.461983,228.834106 105.552025,228.934952 
	C104.257072,224.101700 101.475266,222.001801 97.467018,222.172150 
	C93.548836,222.338684 90.780807,224.410660 90.152412,228.984161 
	C93.375458,228.829514 96.317833,228.688339 100.090622,228.671448 
z"/>
<path fill="#EABC03" opacity="1.000000" stroke="none" 
	d="
M251.509979,266.372192 
	C246.818390,258.710327 246.681488,251.222351 251.227951,243.931763 
	C255.361465,237.303406 262.723358,235.128143 274.628601,236.804947 
	C274.628601,230.347061 274.628601,223.962296 274.628601,217.450409 
	C277.947083,217.450409 280.548615,217.450409 283.481262,217.450409 
	C283.481262,235.588745 283.481262,253.474228 283.481262,272.247162 
	C280.037567,271.867126 276.799042,271.509705 273.560516,271.152313 
	C266.416748,274.378387 257.223633,273.620911 251.509979,266.372192 
M257.920410,252.869751 
	C257.909912,253.862228 257.533752,255.060318 257.955231,255.809891 
	C259.412781,258.402100 260.655579,262.158478 262.903290,262.996948 
	C265.668213,264.028381 270.500488,263.723816 272.344421,261.890198 
	C274.377289,259.868652 274.461609,255.479568 274.633362,252.083313 
	C274.948059,245.860321 272.576324,243.955276 266.337067,244.705276 
	C261.889740,245.239868 259.136810,247.726303 257.920410,252.869751 
z"/>
<path fill="#EBBD03" opacity="1.000000" stroke="none" 
	d="
M199.114639,267.089386 
	C193.950851,272.089478 187.990433,273.631226 181.406464,272.693939 
	C173.044418,271.503510 167.115601,265.759613 165.894821,258.025208 
	C164.525345,249.348709 167.966446,241.873260 175.031525,238.176651 
	C182.592224,234.220779 192.966782,235.615219 198.700760,241.358109 
	C204.154251,246.820084 205.514465,255.966385 201.856262,263.108398 
	C201.181244,264.426270 200.200150,265.587402 199.114639,267.089386 
M177.944412,261.636749 
	C182.613235,265.056091 187.573380,265.232208 191.084824,262.103333 
	C194.273178,259.262329 195.165131,253.815598 193.115326,249.703964 
	C191.115082,245.691727 186.823730,243.800217 182.193726,244.889999 
	C175.617554,246.437836 173.441650,253.807007 177.944412,261.636749 
z"/>
<path fill="#EBBD03" opacity="1.000000" stroke="none" 
	d="
M230.237946,272.508179 
	C213.877335,274.164703 203.366318,262.986572 207.535034,248.907639 
	C210.154037,240.062515 218.417221,235.028046 228.588593,236.080460 
	C237.459885,236.998352 244.208817,243.613235 244.973358,252.139771 
	C245.897263,262.443695 240.908310,269.496613 230.237946,272.508179 
M235.127686,257.015961 
	C235.629608,250.013245 233.489594,246.150146 228.426682,244.919449 
	C223.435623,243.706207 218.711548,246.081711 217.143356,250.593307 
	C215.307022,255.876312 217.587479,261.843475 222.152603,263.700623 
	C227.370728,265.823395 232.121231,263.654053 235.127686,257.015961 
z"/>
<path fill="#EABD03" opacity="1.000000" stroke="none" 
	d="
M451.773499,265.119934 
	C454.873566,264.368805 457.555939,263.640137 460.532440,262.831573 
	C461.266968,264.585541 462.020294,266.384369 462.748260,268.122620 
	C455.786255,274.307800 443.948914,274.552826 436.852020,268.791870 
	C430.374268,263.533447 428.574768,252.909119 432.835663,245.078369 
	C436.933746,237.546844 446.457092,234.012955 454.814728,236.922455 
	C461.635681,239.296997 465.790375,245.302002 465.925262,252.518585 
	C465.986694,255.805511 465.092255,257.339355 461.440216,257.218597 
	C454.791138,256.998627 448.127411,257.215149 441.469971,257.273041 
	C441.161377,257.275696 440.854736,257.506836 440.547974,257.633484 
	C441.740326,263.272278 444.129669,264.931976 451.773499,265.119934 
M453.979492,245.153549 
	C446.766571,241.918365 441.898712,243.832916 440.225586,250.805389 
	C445.648468,250.805389 451.007874,250.805389 457.156250,250.805389 
	C456.128754,248.761246 455.354401,247.220703 453.979492,245.153549 
z"/>
<path fill="#EBBD03" opacity="1.000000" stroke="none" 
	d="
M352.400513,266.598206 
	C352.045654,267.955383 351.808228,269.383575 350.977386,269.967957 
	C345.103485,274.099274 334.412781,273.860260 328.236877,269.637543 
	C322.240967,265.537903 319.425659,257.438232 321.290527,249.653000 
	C323.558746,240.184128 332.921265,234.316895 342.716980,236.225662 
	C352.160004,238.065720 357.240326,246.121643 355.357758,257.157410 
	C347.301758,257.157410 339.097961,257.157410 330.786285,257.157410 
	C332.454590,265.446228 339.505005,267.286163 350.447662,262.590424 
	C351.034698,263.796204 351.638977,265.037384 352.400513,266.598206 
M343.152771,251.074203 
	C344.374451,250.953094 345.596130,250.831970 347.022522,250.690552 
	C346.213470,245.694214 343.444519,243.704208 339.032349,243.674225 
	C334.278961,243.641907 331.232056,245.759521 330.053802,251.074615 
	C334.346313,251.074615 338.292786,251.074615 343.152771,251.074203 
z"/>
<path fill="#ECBE02" opacity="1.000000" stroke="none" 
	d="
M391.717346,241.418579 
	C392.690308,245.920746 393.841888,250.085663 394.120178,254.308121 
	C394.500122,260.072632 394.215057,265.881012 394.215057,271.837402 
	C391.076996,271.837402 388.447601,271.837402 385.121429,271.837402 
	C385.121429,265.448486 385.226471,259.174744 385.091980,252.906128 
	C384.956268,246.582382 380.814972,243.510666 374.759247,245.140503 
	C371.622314,245.984787 369.602966,247.581482 369.770752,251.443756 
	C370.058319,258.063995 369.850189,264.705719 369.850189,271.672607 
	C366.729034,271.672607 363.990997,271.672607 361.016113,271.672607 
	C361.016113,260.209625 361.016113,248.774567 361.016113,236.096512 
	C364.378479,237.057388 367.246948,238.018280 370.187653,238.634583 
	C371.112946,238.828506 372.275757,238.198761 373.255341,237.774139 
	C380.097321,234.808258 386.164703,235.897903 391.717346,241.418579 
z"/>
<path fill="#ECBE02" opacity="1.000000" stroke="none" 
	d="
M163.850098,244.433411 
	C160.888809,245.097366 158.106110,245.352112 154.775360,245.657043 
	C154.775360,254.344818 154.775360,262.930634 154.775360,271.756195 
	C151.610870,271.756195 149.007111,271.756195 145.881836,271.756195 
	C145.802292,270.022522 145.650269,268.271332 145.653091,266.520416 
	C145.672974,254.200531 145.676163,241.880264 145.789566,229.561081 
	C145.836746,224.435486 147.406372,219.861694 152.493835,217.699783 
	C157.727646,215.475693 162.845291,216.170837 168.011810,219.663330 
	C167.052414,221.846390 166.148407,223.903397 165.273804,225.893524 
	C155.881866,224.028229 153.733521,226.344238 155.292709,236.770630 
	C157.966156,236.770630 160.720871,236.770630 164.028687,236.770630 
	C164.028687,239.499268 164.028687,241.761749 163.850098,244.433411 
z"/>
<path fill="#E9BC03" opacity="1.000000" stroke="none" 
	d="
M427.452393,262.708984 
	C426.616760,268.733246 422.840271,271.337250 417.717987,272.417938 
	C410.561920,273.927734 404.375702,271.935333 398.521484,267.091095 
	C400.029236,265.017059 401.268127,263.312866 402.315247,261.872498 
	C406.353455,263.024628 410.039856,264.382507 413.846100,264.992859 
	C415.141632,265.200592 416.739014,263.526215 418.198486,262.711853 
	C417.117767,261.465546 416.272034,259.726196 414.907288,259.075684 
	C412.078186,257.727173 408.884552,257.160095 406.002991,255.900696 
	C401.867767,254.093399 399.339630,251.032593 399.640045,246.180893 
	C399.947357,241.217621 402.636536,238.135223 407.253326,236.819580 
	C413.871124,234.933731 420.007263,235.938034 425.786163,240.406433 
	C424.696960,242.512680 423.730103,244.382309 422.919067,245.950607 
	C419.222137,245.159042 415.902771,244.211609 412.521423,243.859528 
	C411.417542,243.744583 410.152191,245.180389 408.960724,245.906982 
	C409.837769,247.121201 410.458191,248.882034 411.643951,249.438797 
	C414.329071,250.699539 417.355957,251.208328 420.129089,252.311386 
	C424.601837,254.090454 427.884888,256.905640 427.452393,262.708984 
z"/>
<path fill="#EABC03" opacity="1.000000" stroke="none" 
	d="
M313.325439,238.497803 
	C316.225403,241.323395 316.225403,241.323395 312.795258,245.778625 
	C309.236420,245.078903 305.910156,244.188202 302.532318,243.898514 
	C301.455963,243.806229 300.242706,245.310364 299.092102,246.084015 
	C299.894073,247.183258 300.464783,248.799286 301.542755,249.281631 
	C304.404419,250.562042 307.539307,251.215729 310.465790,252.371216 
	C314.754181,254.064453 317.956177,256.772034 317.838806,261.912231 
	C317.728699,266.732788 314.720978,270.521149 309.628723,271.997070 
	C302.005859,274.206482 295.257263,272.410370 288.808197,267.060852 
	C290.238525,265.081360 291.549988,263.266388 292.616364,261.790619 
	C296.590576,262.995575 300.101349,264.436462 303.745972,264.980225 
	C305.208557,265.198425 306.965271,263.444855 308.588104,262.588776 
	C307.437531,261.373627 306.500153,259.711670 305.090637,259.039307 
	C302.415466,257.763153 299.395355,257.229889 296.653473,256.069214 
	C292.124695,254.152145 289.380280,250.944839 289.929321,245.631836 
	C290.471436,240.386230 293.725586,237.046127 298.486938,236.682236 
	C303.258972,236.317535 308.163452,237.685638 313.325439,238.497803 
z"/>
<path fill="#ECBE02" opacity="1.000000" stroke="none" 
	d="
M53.991253,234.987762 
	C59.217518,235.268219 64.081734,234.363602 69.839378,235.850769 
	C64.945236,238.779724 38.167641,238.615509 35.086632,234.987762 
	C41.222298,234.987762 47.357964,234.987762 53.991253,234.987762 
z"/>
<path fill="#C9A711" opacity="1.000000" stroke="none" 
	d="
M46.507385,244.305298 
	C52.604301,244.304626 58.261669,244.304626 64.956322,244.304626 
	C61.405300,248.693649 45.437332,249.077713 40.757980,245.541367 
	C42.983444,245.023575 44.525642,244.664764 46.507385,244.305298 
z"/>
<path fill="#E9BC03" opacity="1.000000" stroke="none" 
	d="
M58.301949,254.011444 
	C60.755749,254.778732 61.806133,256.268494 59.089832,256.910919 
	C56.141453,257.608215 52.900654,257.069031 49.787365,257.069031 
	C49.738934,256.279938 49.690502,255.490829 49.642071,254.701736 
	C52.394661,254.464432 55.147247,254.227127 58.301949,254.011444 
z"/>
<path fill="#273D58" opacity="1.000000" stroke="none" 
	d="
M86.999985,260.426147 
	C80.376976,260.426178 74.253967,260.426178 68.194107,260.426178 
	C66.627304,246.903183 80.412918,232.705460 95.335045,231.921753 
	C112.791092,231.004974 127.979103,244.039413 127.712418,260.426086 
	C114.321877,260.426086 100.910927,260.426086 86.999985,260.426147 
M94.975189,238.275803 
	C96.410454,237.793884 97.845718,237.311981 99.280983,236.830063 
	C88.269905,233.638031 74.292313,242.678711 74.207748,252.817673 
	C79.251717,245.551834 85.297905,239.822998 94.975189,238.275803 
z"/>
<path fill="#263C59" opacity="1.000000" stroke="none" 
	d="
M127.966293,269.959839 
	C105.538605,269.959839 83.606171,269.959839 61.290249,269.959839 
	C61.290249,267.997070 61.290249,266.299927 61.290249,264.152222 
	C62.923870,264.064209 64.533737,263.903320 66.143730,263.902039 
	C87.261673,263.885223 108.380363,263.982269 129.497025,263.816589 
	C133.915909,263.781921 135.865097,264.936096 134.214432,269.959808 
	C132.406265,269.959808 130.433899,269.959808 127.966293,269.959839 
z"/>
<path fill="#354652" opacity="1.000000" stroke="none" 
	d="
M99.675415,228.609299 
	C96.317833,228.688339 93.375458,228.829514 90.152412,228.984161 
	C90.780807,224.410660 93.548836,222.338684 97.467018,222.172150 
	C101.475266,222.001801 104.257072,224.101700 105.552025,228.934952 
	C103.461983,228.834106 101.776299,228.752777 99.675415,228.609299 
z"/>
<path fill="#4D5647" opacity="1.000000" stroke="none" 
	d="
M75.578110,276.224426 
	C80.512802,279.937225 83.925224,277.128479 87.325539,272.633850 
	C85.961006,279.610840 81.440346,281.252777 75.111115,277.343567 
	C75.279182,276.597626 75.428642,276.411011 75.578110,276.224426 
z"/>
<path fill="#4D5647" opacity="1.000000" stroke="none" 
	d="
M111.333305,276.670349 
	C113.877869,276.752075 116.422432,276.833801 119.581230,277.035400 
	C120.374870,277.312683 120.554268,277.470062 120.733665,277.627411 
	C117.475220,280.318939 114.105614,280.400940 110.675621,277.588318 
	C110.923462,276.969421 111.128380,276.819885 111.333305,276.670349 
z"/>
<path fill="#4D5647" opacity="1.000000" stroke="none" 
	d="
M119.927490,276.917938 
	C120.498405,275.522400 121.337288,274.364166 122.176170,273.205933 
	C122.507637,273.408783 122.839104,273.611603 123.170570,273.814423 
	C122.517311,274.948761 121.864052,276.083099 120.972229,277.422424 
	C120.554268,277.470062 120.374870,277.312683 119.927490,276.917938 
z"/>
<path fill="#4D5647" opacity="1.000000" stroke="none" 
	d="
M73.716583,276.282745 
	C73.286240,275.483765 72.855904,274.684814 72.425568,273.885834 
	C72.616753,273.715118 72.807930,273.544373 72.999115,273.373627 
	C73.552498,273.884003 74.105881,274.394348 74.471344,275.385284 
	C74.094475,276.004822 73.905525,276.143799 73.716583,276.282745 
z"/>
<path fill="#4D5647" opacity="1.000000" stroke="none" 
	d="
M109.417511,276.880035 
	C108.892517,275.926636 108.367523,274.973236 107.842529,274.019836 
	C108.047523,273.833740 108.252518,273.647614 108.457512,273.461517 
	C109.018539,273.994324 109.579559,274.527130 110.003052,275.663696 
	C109.716187,276.471619 109.566849,276.675842 109.417511,276.880035 
z"/>
<path fill="#4D5647" opacity="1.000000" stroke="none" 
	d="
M74.574081,275.667603 
	C75.050446,275.609955 75.219284,275.768524 75.474678,276.084747 
	C75.428642,276.411011 75.279182,276.597626 74.898697,277.058624 
	C74.348724,277.216827 74.097305,277.016083 73.815002,276.506775 
	C73.905525,276.143799 74.094475,276.004822 74.574081,275.667603 
z"/>
<path fill="#4D5647" opacity="1.000000" stroke="none" 
	d="
M110.404526,277.333801 
	C109.897285,277.449158 109.731125,277.315887 109.504761,277.014465 
	C109.566849,276.675842 109.716187,276.471619 110.098068,275.967529 
	C110.648796,275.777191 110.908165,275.967010 111.221024,276.453766 
	C111.128380,276.819885 110.923462,276.969421 110.404526,277.333801 
z"/>
<path fill="#2C3F56" opacity="1.000000" stroke="none" 
	d="
M257.967102,252.457672 
	C259.136810,247.726303 261.889740,245.239868 266.337067,244.705276 
	C272.576324,243.955276 274.948059,245.860321 274.633362,252.083313 
	C274.461609,255.479568 274.377289,259.868652 272.344421,261.890198 
	C270.500488,263.723816 265.668213,264.028381 262.903290,262.996948 
	C260.655579,262.158478 259.412781,258.402100 257.955231,255.809891 
	C257.533752,255.060318 257.909912,253.862228 257.967102,252.457672 
z"/>
<path fill="#2A3E57" opacity="1.000000" stroke="none" 
	d="
M177.683228,261.343567 
	C173.441650,253.807007 175.617554,246.437836 182.193726,244.889999 
	C186.823730,243.800217 191.115082,245.691727 193.115326,249.703964 
	C195.165131,253.815598 194.273178,259.262329 191.084824,262.103333 
	C187.573380,265.232208 182.613235,265.056091 177.683228,261.343567 
z"/>
<path fill="#273D58" opacity="1.000000" stroke="none" 
	d="
M235.055725,257.428558 
	C232.121231,263.654053 227.370728,265.823395 222.152603,263.700623 
	C217.587479,261.843475 215.307022,255.876312 217.143356,250.593307 
	C218.711548,246.081711 223.435623,243.706207 228.426682,244.919449 
	C233.489594,246.150146 235.629608,250.013245 235.055725,257.428558 
z"/>
<path fill="#2A3E57" opacity="1.000000" stroke="none" 
	d="
M454.279785,245.416840 
	C455.354401,247.220703 456.128754,248.761246 457.156250,250.805389 
	C451.007874,250.805389 445.648468,250.805389 440.225586,250.805389 
	C441.898712,243.832916 446.766571,241.918365 454.279785,245.416840 
z"/>
<path fill="#2A3E57" opacity="1.000000" stroke="none" 
	d="
M342.696014,251.074402 
	C338.292786,251.074615 334.346313,251.074615 330.053802,251.074615 
	C331.232056,245.759521 334.278961,243.641907 339.032349,243.674225 
	C343.444519,243.704208 346.213470,245.694214 347.022522,250.690552 
	C345.596130,250.831970 344.374451,250.953094 342.696014,251.074402 
z"/>
<path fill="#E0B608" opacity="1.000000" stroke="none" 
	d="
M94.565231,238.340576 
	C85.297905,239.822998 79.251717,245.551834 74.207748,252.817673 
	C74.292313,242.678711 88.269905,233.638031 99.280983,236.830063 
	C97.845718,237.311981 96.410454,237.793884 94.565231,238.340576 
z"/>
</svg>